<?xml version="1.0" encoding="utf-8"?>
<!-- Generator: Adobe Illustrator 16.0.0, SVG Export Plug-In . SVG Version: 6.00 Build 0)  -->
<!DOCTYPE svg PUBLIC "-//W3C//DTD SVG 1.1//EN" "http://www.w3.org/Graphics/SVG/1.1/DTD/svg11.dtd">
<svg version="1.1" id="Layer_1" xmlns="http://www.w3.org/2000/svg" xmlns:xlink="http://www.w3.org/1999/xlink" x="0px" y="0px"
	 width="425.2px" height="141.73px" viewBox="0 0 425.2 141.73" enable-background="new 0 0 425.2 141.73" xml:space="preserve">
<g>
	<path fill="#ACB7B7" d="M162.852,51.159c1.182-2.973,3.151-5.465,6.021-7.595c3.047-2.267,6.073-3.365,9.25-3.365
		c1.208,0,1.193,0.094,3.582,0.405l5.174-14.115c0,0-3.956-0.784-7.001-0.784c-6.419,0-12.756,2.262-18.836,6.73
		c-6.043,4.435-10.234,9.953-12.458,16.389c-0.274,0.786-0.499,1.569-0.694,2.335H162.852z"/>
	<path fill="#ACB7B7" d="M239.639,46.943c2.245-7.402,3.52-12.527,0.848-16.135c-2.531-3.4-7.99-4.664-20.146-4.664
		c-6.411,0-12.754,2.259-18.833,6.728c-6.044,4.438-10.234,9.955-12.459,16.394c-0.224,0.64-0.396,1.269-0.565,1.896h15.001
		c1.205-2.777,3.124-5.134,5.855-7.158c3.043-2.264,5.54-3.113,9.248-3.361c3.852-0.259,6.43-0.001,6.876,0.626
		c0.294,0.415,0.479,1.999-1.59,8c-0.188,0.548-2.687,7.719-3.097,8.885h14.964L239.639,46.943z"/>
	<path fill="#E4474A" d="M162.13,53.595c-0.537,2.535,0.044,3.922,0.595,4.762c0.703,1.075,1.861,2.16,5.152,2.16h17.597h-0.002
		c0.439,2.924,1.495,5.669,3.159,8.21c1.974,3.017,4.496,5.326,7.482,6.891l0.008,0.003c0,0-27.795,0-29.998,0
		c-7.085,0-12.446-3.313-15.938-8.646c-2.596-3.955-3.509-8.452-2.759-13.379H162.13"/>
	<path fill="#ACB7B7" d="M213.063,77.825c-1.082,1.41-2.375,2.695-3.957,3.833c-3.184,2.289-6.286,3.4-9.487,3.4h-14.612
		l-4.725,14.491h17.578c6.541,0,12.984-2.292,19.146-6.823c5.561-4.083,9.553-9.133,11.938-14.901H213.063z"/>
	<polygon fill="#ACB7B7" points="262.88,51.159 279.458,3.173 264.229,3.173 247.916,51.159 	"/>
	<path fill="#3796D3" d="M262.088,53.595c-0.775,2.934-0.135,4.462,0.464,5.357c0.657,1.021,1.673,1.562,5.146,1.562h21.206
		l-4.928,15.104h-18.033c-7.088,0-12.443-2.708-15.93-8.037c-2.701-4.12-3.565-8.824-2.641-13.986H262.088"/>
	<path fill="#AACB52" d="M202.669,53.595c-0.712,2.835-0.077,4.313,0.508,5.202c0.676,1.031,1.814,1.72,5.152,1.72h36.487
		c0.42,2.997,1.483,5.78,3.188,8.381c1.935,2.955,4.361,5.199,7.267,6.724l-0.002-0.002c0,0-47.562,0.001-48.694,0.001
		c-7.085,0-12.446-2.877-15.937-8.208c-2.672-4.078-3.546-8.712-2.677-13.815L202.669,53.595"/>
</g>
<g>
	<path fill="#ACB7B7" d="M34.158,131.256c-1.643,0-2.938-0.521-3.887-1.563c-0.949-1.043-1.424-2.489-1.424-4.34
		c0-1.821,0.348-3.527,1.04-5.119c0.693-1.591,1.632-2.804,2.812-3.64c1.18-0.836,2.549-1.254,4.107-1.254
		c1.264,0,2.401,0.203,3.411,0.609l-0.396,1.272c-1.01-0.442-2.039-0.665-3.086-0.665c-1.219,0-2.316,0.362-3.293,1.091
		c-0.978,0.728-1.744,1.773-2.301,3.144c-0.558,1.369-0.836,2.88-0.836,4.531c0,1.491,0.348,2.642,1.041,3.447
		c0.692,0.809,1.678,1.211,2.952,1.211c0.67,0,1.289-0.062,1.861-0.186c0.57-0.122,1.191-0.34,1.861-0.649v1.304
		C36.93,130.986,35.641,131.256,34.158,131.256z"/>
	<path fill="#ACB7B7" d="M49.154,115.283c1.699,0,3.014,0.512,3.942,1.535c0.93,1.024,1.396,2.438,1.396,4.241
		c0,1.858-0.338,3.6-1.012,5.218c-0.677,1.619-1.599,2.854-2.769,3.703c-1.172,0.851-2.521,1.273-4.051,1.273
		c-1.736,0-3.057-0.517-3.957-1.551c-0.902-1.033-1.354-2.515-1.354-4.438c0-1.804,0.346-3.492,1.034-5.067
		c0.688-1.577,1.617-2.79,2.789-3.641C46.346,115.708,47.672,115.283,49.154,115.283z M49.041,116.501
		c-1.17,0-2.223,0.37-3.158,1.111c-0.934,0.74-1.68,1.804-2.235,3.187c-0.557,1.384-0.836,2.85-0.836,4.396
		c0,3.229,1.332,4.844,3.994,4.844c1.196,0,2.262-0.366,3.19-1.099c0.929-0.731,1.672-1.809,2.225-3.229
		c0.552-1.421,0.828-2.979,0.828-4.68c0-1.454-0.346-2.572-1.032-3.355C51.326,116.894,50.334,116.501,49.041,116.501z"/>
	<path fill="#ACB7B7" d="M65.949,130.974l2.08-9.544c0.236-1.181,0.354-1.944,0.354-2.294c0-1.719-0.729-2.577-2.182-2.577
		c-1,0-1.945,0.317-2.832,0.956c-0.887,0.637-1.639,1.525-2.252,2.669c-0.613,1.144-1.086,2.497-1.416,4.062l-1.416,6.728h-1.387
		l3.271-15.394h1.133l-0.469,2.976h0.086c0.754-1.066,1.611-1.869,2.57-2.408c0.957-0.537,1.961-0.808,3.008-0.808
		c1.002,0,1.771,0.316,2.31,0.949c0.538,0.632,0.821,1.554,0.85,2.762h0.086c0.727-1.219,1.58-2.142,2.563-2.77
		c0.979-0.629,2.028-0.941,3.143-0.941c1.104,0,1.967,0.29,2.584,0.871c0.619,0.58,0.928,1.413,0.928,2.499
		c0,0.272-0.012,0.54-0.035,0.801c-0.022,0.26-0.114,0.823-0.274,1.691l-2.152,9.771h-1.416l2.109-9.629
		c0.235-1.134,0.354-1.965,0.354-2.492c0-0.728-0.203-1.291-0.606-1.691c-0.406-0.4-0.97-0.603-1.687-0.603
		c-1.481,0-2.793,0.648-3.93,1.946c-1.139,1.299-1.934,3.01-2.387,5.134l-1.543,7.335H65.949z"/>
	<path fill="#ACB7B7" d="M87.727,131.199c-2.173,0-3.488-1.033-3.951-3.103h-0.058c-0.123,0.68-0.825,3.961-2.108,9.842h-1.402
		l4.758-22.358h1.16l-0.637,3.881h0.086c0.859-1.444,1.781-2.502,2.768-3.172c0.986-0.671,2.064-1.006,3.236-1.006
		c1.273,0,2.256,0.438,2.945,1.311c0.688,0.873,1.033,2.207,1.033,4.001c0,1.84-0.341,3.592-1.021,5.253
		c-0.68,1.661-1.611,2.969-2.797,3.923C90.557,130.724,89.217,131.199,87.727,131.199z M91.266,116.559
		c-0.82,0-1.644,0.275-2.464,0.828c-0.821,0.553-1.584,1.343-2.286,2.372c-0.703,1.028-1.226,2.149-1.564,3.362
		c-0.338,1.213-0.51,2.196-0.51,2.952c0,1.18,0.289,2.126,0.871,2.839c0.58,0.713,1.375,1.068,2.385,1.068
		c1.172,0,2.231-0.396,3.186-1.188c0.955-0.793,1.729-1.941,2.322-3.447c0.596-1.507,0.894-3.042,0.894-4.609
		C94.098,117.95,93.154,116.559,91.266,116.559z"/>
	<path fill="#ACB7B7" d="M102.34,115.58l-2.151,9.885c-0.207,1-0.312,1.746-0.312,2.236c0,0.698,0.224,1.254,0.672,1.664
		c0.447,0.41,1.103,0.615,1.961,0.615c1.039,0,2.019-0.311,2.938-0.928c0.922-0.618,1.695-1.501,2.322-2.646
		c0.629-1.146,1.098-2.468,1.409-3.958l1.486-6.868h1.389l-3.271,15.394h-1.133l0.396-2.901h-0.086
		c-1.576,2.086-3.479,3.129-5.705,3.129c-1.237,0-2.174-0.293-2.813-0.878c-0.637-0.586-0.955-1.438-0.955-2.562
		c0-0.566,0.104-1.368,0.313-2.406l2.123-9.771h1.416L102.34,115.58L102.34,115.58z"/>
	<path fill="#ACB7B7" d="M122.957,115.58l-0.256,1.146h-4.008l-1.91,8.991c-0.209,0.937-0.313,1.709-0.313,2.321
		c0,1.313,0.597,1.97,1.785,1.97c0.642,0,1.359-0.123,2.152-0.368v1.218c-0.953,0.266-1.756,0.396-2.408,0.396
		c-0.934,0-1.656-0.257-2.166-0.771c-0.51-0.514-0.766-1.263-0.766-2.243c0-0.688,0.139-1.662,0.412-2.918l1.826-8.596h-2.578
		l0.198-0.947l2.605-0.241l1.373-3.583h0.779l-0.779,3.625H122.957z"/>
	<path fill="#ACB7B7" d="M128.492,131.256c-1.633,0-2.906-0.517-3.822-1.551c-0.916-1.033-1.373-2.477-1.373-4.326
		c0-1.708,0.334-3.346,1.004-4.913c0.673-1.566,1.595-2.812,2.771-3.737c1.176-0.925,2.471-1.389,3.887-1.389
		c1.076,0,1.937,0.288,2.576,0.863c0.643,0.576,0.962,1.358,0.962,2.353c0,1.708-0.771,3.011-2.312,3.907
		c-1.543,0.896-3.834,1.346-6.875,1.346h-0.468c-0.057,0.415-0.086,0.878-0.086,1.389c0,1.558,0.351,2.744,1.049,3.562
		c0.699,0.816,1.703,1.225,3.017,1.225c1.246,0,2.549-0.345,3.908-1.033v1.332C131.406,130.931,129.994,131.256,128.492,131.256z
		 M130.787,116.559c-1.236,0-2.387,0.545-3.447,1.636c-1.063,1.091-1.83,2.547-2.303,4.368h0.695c4.881,0,7.319-1.273,7.319-3.822
		c0-0.634-0.204-1.154-0.614-1.563C132.025,116.764,131.477,116.559,130.787,116.559z"/>
	<path fill="#ACB7B7" d="M145.088,115.312c0.651,0,1.231,0.065,1.742,0.198l-0.298,1.315c-0.442-0.142-0.977-0.212-1.6-0.212
		c-0.89,0-1.732,0.302-2.535,0.905c-0.804,0.604-1.524,1.512-2.166,2.72c-0.644,1.208-1.115,2.516-1.416,3.923l-1.416,6.812h-1.39
		l3.271-15.394h1.134l-0.41,2.89h0.084c0.688-0.888,1.271-1.526,1.742-1.918c0.471-0.393,0.976-0.696,1.508-0.914
		C143.874,115.42,144.458,115.312,145.088,115.312z"/>
	<path fill="#ACB7B7" d="M168.75,115.58l-0.239,1.119l-3.44,0.155c0.246,0.265,0.451,0.66,0.617,1.188
		c0.164,0.528,0.246,1.065,0.246,1.613c0,1.028-0.257,2.004-0.771,2.925c-0.514,0.92-1.213,1.605-2.096,2.061
		s-1.892,0.681-3.023,0.681c-0.594,0-0.957-0.042-1.09-0.128c-0.754,0.312-1.34,0.656-1.756,1.033
		c-0.414,0.378-0.623,0.762-0.623,1.146c0,0.386,0.147,0.69,0.447,0.913c0.297,0.223,0.832,0.371,1.604,0.445l1.716,0.155
		c3.267,0.293,4.897,1.539,4.897,3.737c0,1.059-0.307,1.99-0.92,2.797c-0.613,0.809-1.496,1.429-2.648,1.862
		c-1.148,0.436-2.523,0.65-4.12,0.65c-1.757,0-3.131-0.34-4.127-1.021s-1.494-1.638-1.494-2.875c0-2.229,1.459-3.804,4.375-4.729
		c-0.735-0.396-1.104-0.979-1.104-1.741c0-1.161,0.902-2.114,2.705-2.86c-0.67-0.34-1.191-0.838-1.563-1.494
		c-0.373-0.655-0.562-1.398-0.562-2.229c0-1.05,0.254-2.013,0.758-2.89c0.506-0.879,1.203-1.566,2.097-2.067
		c0.894-0.5,1.866-0.75,2.925-0.75c0.65,0,1.346,0.1,2.081,0.297h5.11V115.58L168.75,115.58z M153.374,133.905
		c0,0.952,0.381,1.66,1.146,2.122c0.764,0.464,1.821,0.694,3.172,0.694c1.916,0,3.412-0.353,4.487-1.056s1.614-1.669,1.614-2.896
		c0-0.803-0.295-1.419-0.885-1.85c-0.59-0.43-1.623-0.699-3.096-0.812l-2.268-0.213c-1.479,0.426-2.548,0.965-3.198,1.621
		C153.697,132.174,153.374,132.97,153.374,133.905z M157.208,120.905c0,1.058,0.277,1.859,0.83,2.407
		c0.552,0.547,1.328,0.819,2.328,0.819c0.832,0,1.56-0.174,2.183-0.522s1.104-0.888,1.45-1.613c0.345-0.728,0.518-1.523,0.518-2.395
		c0-0.98-0.266-1.743-0.794-2.286c-0.526-0.543-1.271-0.813-2.224-0.813c-0.877,0-1.637,0.203-2.278,0.607
		c-0.644,0.406-1.138,0.954-1.485,1.644C157.385,119.441,157.208,120.159,157.208,120.905z"/>
	<path fill="#ACB7B7" d="M177.996,115.312c0.652,0,1.232,0.065,1.742,0.198l-0.297,1.315c-0.443-0.142-0.978-0.212-1.601-0.212
		c-0.89,0-1.731,0.302-2.534,0.905c-0.805,0.604-1.525,1.512-2.166,2.72c-0.645,1.208-1.115,2.516-1.416,3.923l-1.416,6.812h-1.391
		l3.271-15.394h1.133l-0.41,2.89h0.084c0.689-0.888,1.271-1.526,1.742-1.918c0.471-0.393,0.976-0.696,1.508-0.914
		C176.781,115.42,177.365,115.312,177.996,115.312z"/>
	<path fill="#ACB7B7" d="M187.824,115.34c2.188,0,3.508,1.033,3.951,3.103h0.084l0.836-2.86h1.133l-3.242,15.394h-1.161l0.638-3.88
		h-0.084c-0.793,1.341-1.677,2.368-2.648,3.087c-0.971,0.718-2.09,1.075-3.354,1.075c-2.652,0-3.979-1.766-3.979-5.296
		c0-1.858,0.354-3.635,1.062-5.323c0.71-1.688,1.656-2.995,2.841-3.915C185.08,115.801,186.389,115.34,187.824,115.34z
		 M184.299,129.981c0.84,0,1.679-0.293,2.515-0.878c0.834-0.585,1.586-1.369,2.25-2.352c0.666-0.98,1.174-2.066,1.521-3.257
		c0.351-1.189,0.523-2.194,0.523-3.017c0-0.746-0.123-1.414-0.369-2.004c-0.244-0.59-0.606-1.059-1.09-1.401
		c-0.479-0.346-1.08-0.518-1.799-0.518c-1.17,0-2.229,0.387-3.173,1.161c-0.942,0.773-1.718,1.933-2.321,3.477
		s-0.906,3.08-0.906,4.609c0,1.436,0.236,2.488,0.709,3.164C182.633,129.642,183.346,129.981,184.299,129.981z"/>
	<path fill="#ACB7B7" d="M201.645,131.199c-2.17,0-3.488-1.033-3.949-3.103h-0.058c-0.122,0.68-0.825,3.961-2.11,9.842h-1.399
		l4.758-22.358h1.16l-0.638,3.881h0.084c0.859-1.444,1.783-2.502,2.771-3.172c0.985-0.671,2.063-1.006,3.233-1.006
		c1.275,0,2.257,0.438,2.945,1.311s1.035,2.207,1.035,4.001c0,1.84-0.341,3.592-1.021,5.253c-0.68,1.661-1.612,2.969-2.797,3.923
		C204.475,130.724,203.137,131.199,201.645,131.199z M205.186,116.559c-0.822,0-1.645,0.275-2.466,0.828
		c-0.819,0.553-1.584,1.343-2.286,2.372c-0.703,1.028-1.227,2.149-1.564,3.362s-0.51,2.196-0.51,2.952
		c0,1.18,0.291,2.126,0.871,2.839s1.377,1.068,2.387,1.068c1.17,0,2.232-0.396,3.187-1.188c0.954-0.793,1.729-1.941,2.321-3.447
		c0.598-1.507,0.895-3.042,0.895-4.609C208.018,117.95,207.072,116.559,205.186,116.559z"/>
	<path fill="#ACB7B7" d="M221.682,130.974l2.107-9.8c0.199-0.867,0.299-1.604,0.299-2.209c0-0.755-0.205-1.346-0.615-1.771
		c-0.41-0.426-1.045-0.638-1.904-0.638c-1.059,0-2.051,0.315-2.979,0.947c-0.932,0.634-1.717,1.521-2.354,2.662
		c-0.637,1.144-1.125,2.492-1.465,4.052l-1.445,6.754h-1.387l4.701-22.033h1.357l-1.219,5.819c-0.414,1.889-0.727,3.204-0.934,3.95
		h0.084c0.734-1.065,1.617-1.896,2.641-2.484c1.025-0.591,2.107-0.886,3.25-0.886c1.172,0,2.078,0.308,2.719,0.92
		c0.645,0.614,0.965,1.479,0.965,2.593c0,0.661-0.113,1.521-0.342,2.577l-2.096,9.544L221.682,130.974L221.682,130.974z"/>
	<path fill="#ACB7B7" d="M229.512,130.974h-1.387l3.271-15.394h1.357L229.512,130.974z M232.004,111.63
		c0-0.521,0.104-0.936,0.312-1.245c0.207-0.312,0.49-0.469,0.85-0.469c0.537,0,0.809,0.34,0.809,1.021
		c0,0.539-0.104,0.963-0.312,1.274s-0.479,0.468-0.809,0.468c-0.273,0-0.482-0.093-0.629-0.276S232.004,111.96,232.004,111.63z"/>
	<path fill="#ACB7B7" d="M240.527,131.256c-1.645,0-2.938-0.521-3.887-1.563c-0.947-1.043-1.424-2.489-1.424-4.34
		c0-1.821,0.348-3.527,1.041-5.119c0.693-1.591,1.633-2.804,2.812-3.64s2.549-1.254,4.104-1.254c1.268,0,2.402,0.203,3.412,0.609
		l-0.396,1.272c-1.01-0.442-2.039-0.665-3.086-0.665c-1.219,0-2.314,0.362-3.293,1.091c-0.979,0.728-1.744,1.773-2.301,3.144
		c-0.559,1.369-0.836,2.88-0.836,4.531c0,1.491,0.348,2.642,1.041,3.447c0.693,0.809,1.678,1.211,2.951,1.211
		c0.672,0,1.291-0.062,1.861-0.186c0.572-0.122,1.193-0.34,1.863-0.649v1.304C243.299,130.986,242.01,131.256,240.527,131.256z"/>
	<path fill="#ACB7B7" d="M256.43,126.795c0,1.359-0.484,2.443-1.459,3.25c-0.973,0.809-2.293,1.211-3.965,1.211
		c-1.633,0-3.07-0.354-4.316-1.062v-1.515c0.697,0.436,1.42,0.771,2.166,1.005c0.746,0.235,1.443,0.354,2.096,0.354
		c1.303,0,2.299-0.271,2.988-0.813c0.688-0.543,1.031-1.313,1.031-2.314c0-0.396-0.072-0.745-0.219-1.048s-0.383-0.593-0.709-0.87
		c-0.324-0.278-0.951-0.684-1.875-1.212c-1.396-0.755-2.342-1.441-2.832-2.061c-0.492-0.618-0.734-1.371-0.734-2.259
		c0-1.209,0.465-2.196,1.395-2.967s2.154-1.154,3.674-1.154c0.709,0,1.457,0.083,2.244,0.248c0.789,0.165,1.453,0.386,1.99,0.658
		l-0.496,1.246c-1.283-0.604-2.529-0.906-3.738-0.906c-1.094,0-1.973,0.25-2.633,0.75c-0.662,0.501-0.992,1.151-0.992,1.955
		c0,0.52,0.08,0.935,0.242,1.246c0.16,0.312,0.445,0.635,0.855,0.97c0.408,0.335,0.975,0.696,1.691,1.083
		c1.076,0.596,1.838,1.083,2.285,1.467c0.449,0.382,0.777,0.79,0.992,1.226C256.324,125.715,256.43,126.221,256.43,126.795z"/>
	<path fill="#ACB7B7" d="M267.984,130.974h-1.33l4.729-22.033h1.332L267.984,130.974z"/>
	<path fill="#ACB7B7" d="M281.58,115.34c2.188,0,3.506,1.033,3.949,3.103h0.086l0.836-2.86h1.133l-3.244,15.394h-1.16l0.639-3.88
		h-0.086c-0.795,1.341-1.678,2.368-2.648,3.087c-0.971,0.718-2.092,1.075-3.355,1.075c-2.652,0-3.979-1.766-3.979-5.296
		c0-1.858,0.354-3.635,1.062-5.323s1.654-2.995,2.842-3.915C278.834,115.801,280.145,115.34,281.58,115.34z M278.053,129.981
		c0.84,0,1.678-0.293,2.516-0.878c0.836-0.585,1.586-1.369,2.252-2.352c0.666-0.981,1.172-2.066,1.521-3.257
		c0.35-1.189,0.523-2.194,0.523-3.017c0-0.746-0.123-1.414-0.369-2.004c-0.244-0.59-0.607-1.059-1.09-1.401
		c-0.48-0.346-1.082-0.518-1.799-0.518c-1.17,0-2.229,0.387-3.172,1.161c-0.943,0.773-1.719,1.933-2.322,3.477
		s-0.906,3.08-0.906,4.609c0,1.436,0.236,2.488,0.709,3.164C276.387,129.645,277.1,129.981,278.053,129.981z"/>
	<path fill="#ACB7B7" d="M295.428,131.199c-1.064,0-1.943-0.278-2.635-0.836c-0.689-0.558-1.146-1.341-1.373-2.351h-0.084
		l-0.779,2.959h-1.133l4.631-22.033h1.346c-1.236,5.93-2,9.474-2.295,10.636h0.086c0.879-1.474,1.816-2.558,2.816-3.25
		c1-0.694,2.092-1.041,3.271-1.041c2.65,0,3.979,1.771,3.979,5.312c0,1.916-0.357,3.709-1.076,5.381
		c-0.717,1.67-1.666,2.959-2.846,3.864C298.156,130.746,296.854,131.199,295.428,131.199z M298.967,116.559
		c-0.859,0-1.709,0.29-2.549,0.871c-0.84,0.58-1.598,1.38-2.271,2.398c-0.676,1.021-1.178,2.129-1.508,3.328
		c-0.332,1.198-0.496,2.171-0.496,2.917c0,1.218,0.303,2.174,0.906,2.866c0.604,0.694,1.387,1.041,2.35,1.041
		c1.174,0,2.23-0.393,3.174-1.175c0.943-0.784,1.719-1.939,2.32-3.471c0.605-1.528,0.906-3.062,0.906-4.604
		c0-1.436-0.229-2.488-0.693-3.164C300.643,116.895,299.93,116.559,298.967,116.559z"/>
	<path fill="#ACB7B7" d="M313.836,115.283c1.699,0,3.014,0.512,3.943,1.535c0.928,1.024,1.395,2.438,1.395,4.241
		c0,1.858-0.338,3.6-1.012,5.218c-0.676,1.619-1.6,2.854-2.77,3.703c-1.172,0.851-2.521,1.273-4.051,1.273
		c-1.734,0-3.057-0.517-3.957-1.551c-0.9-1.033-1.354-2.515-1.354-4.438c0-1.804,0.346-3.492,1.035-5.067
		c0.688-1.577,1.615-2.79,2.787-3.641C311.027,115.708,312.354,115.283,313.836,115.283z M313.723,116.501
		c-1.17,0-2.225,0.37-3.158,1.111c-0.934,0.74-1.68,1.804-2.236,3.187c-0.555,1.384-0.836,2.85-0.836,4.396
		c0,3.229,1.332,4.844,3.994,4.844c1.197,0,2.262-0.366,3.191-1.099c0.93-0.731,1.672-1.809,2.225-3.229
		c0.551-1.421,0.828-2.979,0.828-4.68c0-1.454-0.346-2.572-1.033-3.355C316.008,116.894,315.016,116.501,313.723,116.501z"/>
	<path fill="#ACB7B7" d="M330.658,115.312c0.65,0,1.23,0.065,1.742,0.198l-0.299,1.315c-0.443-0.142-0.979-0.212-1.602-0.212
		c-0.887,0-1.732,0.302-2.533,0.905c-0.803,0.604-1.523,1.512-2.168,2.72c-0.641,1.208-1.113,2.516-1.416,3.923l-1.416,6.812h-1.387
		l3.271-15.394h1.133l-0.412,2.89h0.086c0.689-0.888,1.271-1.526,1.742-1.918c0.471-0.393,0.977-0.696,1.508-0.914
		C329.443,115.42,330.025,115.312,330.658,115.312z"/>
	<path fill="#ACB7B7" d="M340.486,115.34c2.188,0,3.506,1.033,3.947,3.103h0.086l0.838-2.86h1.133l-3.244,15.394h-1.16l0.637-3.88
		h-0.084c-0.793,1.341-1.676,2.368-2.646,3.087c-0.973,0.718-2.094,1.075-3.355,1.075c-2.654,0-3.979-1.766-3.979-5.296
		c0-1.858,0.354-3.635,1.062-5.323s1.654-2.995,2.84-3.915C337.74,115.801,339.051,115.34,340.486,115.34z M336.959,129.981
		c0.84,0,1.678-0.293,2.514-0.878s1.586-1.369,2.252-2.352c0.666-0.981,1.172-2.066,1.521-3.257c0.35-1.189,0.523-2.194,0.523-3.017
		c0-0.746-0.121-1.414-0.367-2.004s-0.609-1.059-1.092-1.401c-0.48-0.346-1.082-0.518-1.799-0.518c-1.17,0-2.229,0.387-3.172,1.161
		c-0.941,0.773-1.719,1.933-2.322,3.477s-0.904,3.08-0.904,4.609c0,1.436,0.234,2.488,0.709,3.164
		C335.293,129.645,336.006,129.981,336.959,129.981z"/>
	<path fill="#ACB7B7" d="M357.08,115.58l-0.254,1.146h-4.008l-1.912,8.991c-0.207,0.937-0.312,1.709-0.312,2.321
		c0,1.313,0.596,1.97,1.783,1.97c0.643,0,1.359-0.123,2.152-0.368v1.218c-0.953,0.266-1.758,0.396-2.406,0.396
		c-0.938,0-1.656-0.257-2.166-0.771s-0.766-1.263-0.766-2.243c0-0.688,0.137-1.662,0.408-2.918l1.828-8.596h-2.578l0.199-0.947
		l2.605-0.241l1.373-3.583h0.777l-0.777,3.625H357.08z"/>
	<path fill="#ACB7B7" d="M365.166,115.283c1.699,0,3.014,0.512,3.943,1.535c0.928,1.024,1.395,2.438,1.395,4.241
		c0,1.858-0.338,3.6-1.012,5.218c-0.676,1.619-1.6,2.854-2.77,3.703c-1.172,0.851-2.521,1.273-4.051,1.273
		c-1.736,0-3.057-0.517-3.957-1.551c-0.902-1.033-1.354-2.515-1.354-4.438c0-1.804,0.346-3.492,1.033-5.067
		c0.688-1.577,1.617-2.79,2.789-3.641C362.357,115.708,363.684,115.283,365.166,115.283z M365.053,116.501
		c-1.17,0-2.223,0.37-3.158,1.111c-0.934,0.74-1.68,1.804-2.234,3.187c-0.557,1.384-0.836,2.85-0.836,4.396
		c0,3.229,1.332,4.844,3.994,4.844c1.195,0,2.262-0.366,3.189-1.099c0.93-0.731,1.672-1.809,2.227-3.229
		c0.551-1.421,0.826-2.979,0.826-4.68c0-1.454-0.346-2.572-1.031-3.355C367.338,116.894,366.346,116.501,365.053,116.501z"/>
	<path fill="#ACB7B7" d="M381.988,115.312c0.65,0,1.23,0.065,1.74,0.198l-0.297,1.315c-0.443-0.142-0.979-0.212-1.602-0.212
		c-0.887,0-1.732,0.302-2.533,0.905c-0.803,0.604-1.525,1.512-2.168,2.72c-0.641,1.208-1.113,2.516-1.416,3.923l-1.416,6.812h-1.387
		l3.271-15.394h1.133l-0.412,2.89h0.086c0.689-0.888,1.271-1.526,1.742-1.918c0.471-0.393,0.975-0.696,1.508-0.914
		C380.773,115.42,381.355,115.312,381.988,115.312z"/>
	<path fill="#ACB7B7" d="M384.283,115.58h1.416l1.16,7.76c0.48,3.314,0.738,5.435,0.777,6.358h0.156
		c0.404-0.991,1.283-2.725,2.633-5.196l4.928-8.922h1.459l-10.096,18.269c-0.68,1.197-1.26,2.039-1.736,2.521
		c-0.475,0.482-1.014,0.863-1.611,1.146c-0.6,0.282-1.291,0.425-2.074,0.425c-0.643,0-1.252-0.101-1.826-0.297v-1.304
		c0.67,0.255,1.316,0.383,1.939,0.383c0.754,0,1.449-0.232,2.082-0.701c0.631-0.467,1.246-1.242,1.84-2.329
		c0.596-1.086,1.064-1.953,1.416-2.604L384.283,115.58z"/>
</g>
</svg>
